<svg width="43" height="43" viewBox="0 0 43 43" fill="none" xmlns="http://www.w3.org/2000/svg">
<path d="M41.4383 2.06644L32.7039 0.0508105C31.7549 -0.167549 30.7806 0.327959 30.3943 1.21819L26.3631 10.6244C26.0103 11.4475 26.2455 12.4133 26.9426 12.976L32.032 17.1416C29.0086 23.5832 23.726 28.9414 17.15 32.0237L12.9844 26.9342C12.4133 26.2371 11.4558 26.002 10.6328 26.3547L1.22654 30.386C0.32791 30.7807 -0.167598 31.7549 0.0507618 32.7039L2.06639 41.4383C2.27635 42.3453 3.0826 43.0004 4.03162 43.0004C25.54 43.0004 43.0004 25.5737 43.0004 4.03167C43.0004 3.09104 42.3537 2.2764 41.4383 2.06644Z" fill="white"/>
</svg>
