<svg width="40" height="36" viewBox="0 0 40 36" fill="none" xmlns="http://www.w3.org/2000/svg">
<path d="M36.309 17.6228H3.80905C2.81449 17.6228 1.86066 18.0179 1.1574 18.7212C0.454136 19.4244 0.0590477 20.3782 0.0590477 21.3728C0.0590477 22.3674 0.454136 23.3212 1.1574 24.0245C1.86066 24.7277 2.81449 25.1228 3.80905 25.1228H36.309C37.3036 25.1228 38.2574 24.7277 38.9607 24.0245C39.664 23.3212 40.059 22.3674 40.059 21.3728C40.059 20.3782 39.664 19.4244 38.9607 18.7212C38.2574 18.0179 37.3036 17.6228 36.309 17.6228ZM37.559 27.6228H2.55905C2.22753 27.6228 1.90958 27.7545 1.67516 27.9889C1.44074 28.2233 1.30905 28.5413 1.30905 28.8728V30.1228C1.30905 31.4489 1.83583 32.7207 2.77351 33.6583C3.7112 34.596 4.98296 35.1228 6.30905 35.1228H33.809C35.1351 35.1228 36.4069 34.596 37.3446 33.6583C38.2823 32.7207 38.809 31.4489 38.809 30.1228V28.8728C38.809 28.5413 38.6774 28.2233 38.4429 27.9889C38.2085 27.7545 37.8906 27.6228 37.559 27.6228ZM4.6403 15.1228H35.4778C38.1786 15.1228 39.745 11.6931 38.1981 9.19468C35.059 4.1228 28.1489 0.130615 20.059 0.122803C11.97 0.130615 5.05905 4.1228 1.91999 9.1939C0.371548 11.6923 1.93952 15.1228 4.6403 15.1228ZM30.059 6.3728C30.3063 6.3728 30.5479 6.44611 30.7535 6.58347C30.9591 6.72082 31.1193 6.91604 31.2139 7.14445C31.3085 7.37286 31.3333 7.62419 31.285 7.86667C31.2368 8.10914 31.1177 8.33187 30.9429 8.50669C30.7681 8.6815 30.5454 8.80055 30.3029 8.84878C30.0604 8.89702 29.8091 8.87226 29.5807 8.77765C29.3523 8.68304 29.1571 8.52283 29.0197 8.31727C28.8824 8.1117 28.809 7.87003 28.809 7.6228C28.809 7.29128 28.9407 6.97334 29.1752 6.73892C29.4096 6.5045 29.7275 6.3728 30.059 6.3728ZM20.059 3.8728C20.3063 3.8728 20.5479 3.94611 20.7535 4.08347C20.9591 4.22082 21.1193 4.41604 21.2139 4.64445C21.3085 4.87286 21.3333 5.12419 21.285 5.36667C21.2368 5.60914 21.1177 5.83187 20.9429 6.00669C20.7681 6.1815 20.5454 6.30055 20.3029 6.34878C20.0604 6.39702 19.8091 6.37226 19.5807 6.27765C19.3523 6.18304 19.1571 6.02283 19.0197 5.81727C18.8824 5.6117 18.809 5.37003 18.809 5.1228C18.809 4.79128 18.9407 4.47334 19.1752 4.23892C19.4096 4.0045 19.7275 3.8728 20.059 3.8728ZM10.059 6.3728C10.3063 6.3728 10.5479 6.44611 10.7535 6.58347C10.9591 6.72082 11.1193 6.91604 11.2139 7.14445C11.3085 7.37286 11.3333 7.62419 11.285 7.86667C11.2368 8.10914 11.1177 8.33187 10.9429 8.50669C10.7681 8.6815 10.5454 8.80055 10.3029 8.84878C10.0604 8.89702 9.8091 8.87226 9.58069 8.77765C9.35229 8.68304 9.15706 8.52283 9.01971 8.31727C8.88236 8.1117 8.80905 7.87003 8.80905 7.6228C8.80905 7.29128 8.94074 6.97334 9.17516 6.73892C9.40958 6.5045 9.72753 6.3728 10.059 6.3728Z" fill="white"/>
</svg>
